#!OML:ASF G:\ViconDB\ViconDB\414\test\team2\shane.ASF
:FULLY-SPECIFIED
:DEGREES
182
root 4.57328 6.53573 -4.56732 201.719 21.8812 100.911
lowerback 24.121 -3.50832 -2.77251
upperback 12.5914 -2.33011 3.71624
thorax 0.826277 -0.506456 6.14338
lowerneck -17.4266 -8.08915 -13.931
upperneck 17.3822 -8.38377 0.912911
head 8.97253 -4.95435 1.39254
rclavicle -4.77083e-014 -1.08139e-013
rhumerus 30.2139 15.2985 5.89818
rradius 97.4907
rwrist 51.052
rhand -53.9545 -19.3004
rfingers 7.12502
rthumb -26.3797 -47.4853
lclavicle -4.77083e-014 -1.08139e-013
lhumerus 62.8122 7.95763 9.06744
lradius 32.3284
lwrist -36.2241
lhand -63.6372 -320.566
lfingers 7.12502
lthumb -35.6071 -294.154
rfemur -45.8312 -20.5803 7.62504
rtibia 83.6141
rfoot -17.9501 20.5428
rtoes 8.74162
lfemur -38.4709 25.1566 -11.587
ltibia 100.167
lfoot 8.88534 -51.7918
ltoes -4.97684
183
root 4.57328 6.53573 -4.56732 201.719 21.8812 100.911
lowerback 24.121 -3.50832 -2.77251
upperback 12.5914 -2.33011 3.71624
thorax 0.826277 -0.506456 6.14338
lowerneck -17.4266 -8.08915 -13.931
upperneck 17.3822 -8.38377 0.912911
head 8.97253 -4.95435 1.39254
rclavicle -4.77083e-014 -1.08139e-013
rhumerus 30.2139 15.2985 5.89818
rradius 97.4907
rwrist 51.052
rhand -53.9545 -19.3004
rfingers 7.12502
rthumb -26.3797 -47.4853
lclavicle -4.77083e-014 -1.08139e-013
lhumerus 62.8122 7.95763 9.06744
lradius 32.3284
lwrist -36.2241
lhand -63.6372 -320.566
lfingers 7.12502
lthumb -35.6071 -294.154
rfemur -45.8312 -20.5803 7.62504
rtibia 83.6141
rfoot -17.9501 20.5428
rtoes 8.74162
lfemur -38.4709 25.1566 -11.587
ltibia 100.167
lfoot 8.88534 -51.7918
ltoes -4.97684
184
root 4.57328 6.53573 -4.56732 201.719 21.8812 100.911
lowerback 24.121 -3.50832 -2.77251
upperback 12.5914 -2.33011 3.71624
thorax 0.826277 -0.506456 6.14338
lowerneck -17.4266 -8.08915 -13.931
upperneck 17.3822 -8.38377 0.912911
head 8.97253 -4.95435 1.39254
rclavicle -4.77083e-014 -1.08139e-013
rhumerus 30.2139 15.2985 5.89818
rradius 97.4907
rwrist 51.052
rhand -53.9545 -19.3004
rfingers 7.12502
rthumb -26.3797 -47.4853
lclavicle -4.77083e-014 -1.08139e-013
lhumerus 62.8122 7.95763 9.06744
lradius 32.3284
lwrist -36.2241
lhand -63.6372 -320.566
lfingers 7.12502
lthumb -35.6071 -294.154
rfemur -45.8312 -20.5803 7.62504
rtibia 83.6141
rfoot -17.9501 20.5428
rtoes 8.74162
lfemur -38.4709 25.1566 -11.587
ltibia 100.167
lfoot 8.88534 -51.7918
ltoes -4.97684
185
root 4.57328 6.53573 -4.56732 201.719 21.8812 100.911
lowerback 24.121 -3.50832 -2.77251
upperback 12.5914 -2.33011 3.71624
thorax 0.826277 -0.506456 6.14338
lowerneck -17.4266 -8.08915 -13.931
upperneck 17.3822 -8.38377 0.912911
head 8.97253 -4.95435 1.39254
rclavicle -4.77083e-014 -1.08139e-013
rhumerus 30.2139 15.2985 5.89818
rradius 97.4907
rwrist 51.052
rhand -53.9545 -19.3004
rfingers 7.12502
rthumb -26.3797 -47.4853
lclavicle -4.77083e-014 -1.08139e-013
lhumerus 62.8122 7.95763 9.06744
lradius 32.3284
lwrist -36.2241
lhand -63.6372 -320.566
lfingers 7.12502
lthumb -35.6071 -294.154
rfemur -45.8312 -20.5803 7.62504
rtibia 83.6141
rfoot -17.9501 20.5428
rtoes 8.74162
lfemur -38.4709 25.1566 -11.587
ltibia 100.167
lfoot 8.88534 -51.7918
ltoes -4.97684
186
root 4.57328 6.53573 -4.56732 201.719 21.8812 100.911
lowerback 24.121 -3.50832 -2.77251
upperback 12.5914 -2.33011 3.71624
thorax 0.826277 -0.506456 6.14338
lowerneck -17.4266 -8.08915 -13.931
upperneck 17.3822 -8.38377 0.912911
head 8.97253 -4.95435 1.39254
rclavicle -4.77083e-014 -1.08139e-013
rhumerus 30.2139 15.2985 5.89818
rradius 97.4907
rwrist 51.052
rhand -53.9545 -19.3004
rfingers 7.12502
rthumb -26.3797 -47.4853
lclavicle -4.77083e-014 -1.08139e-013
lhumerus 62.8122 7.95763 9.06744
lradius 32.3284
lwrist -36.2241
lhand -63.6372 -320.566
lfingers 7.12502
lthumb -35.6071 -294.154
rfemur -45.8312 -20.5803 7.62504
rtibia 83.6141
rfoot -17.9501 20.5428
rtoes 8.74162
lfemur -38.4709 25.1566 -11.587
ltibia 100.167
lfoot 8.88534 -51.7918
ltoes -4.97684
187
root 4.57328 6.53573 -4.56732 201.719 21.8812 100.911
lowerback 24.121 -3.50832 -2.77251
upperback 12.5914 -2.33011 3.71624
thorax 0.826277 -0.506456 6.14338
lowerneck -17.4266 -8.08915 -13.931
upperneck 17.3822 -8.38377 0.912911
head 8.97253 -4.95435 1.39254
rclavicle -4.77083e-014 -1.08139e-013
rhumerus 30.2139 15.2985 5.89818
rradius 97.4907
rwrist 51.052
rhand -53.9545 -19.3004
rfingers 7.12502
rthumb -26.3797 -47.4853
lclavicle -4.77083e-014 -1.08139e-013
lhumerus 62.8122 7.95763 9.06744
lradius 32.3284
lwrist -36.2241
lhand -63.6372 -320.566
lfingers 7.12502
lthumb -35.6071 -294.154
rfemur -45.8312 -20.5803 7.62504
rtibia 83.6141
rfoot -17.9501 20.5428
rtoes 8.74162
lfemur -38.4709 25.1566 -11.587
ltibia 100.167
lfoot 8.88534 -51.7918
ltoes -4.97684
188
root 4.57328 6.53573 -4.56732 201.719 21.8812 100.911
lowerback 24.121 -3.50832 -2.77251
upperback 12.5914 -2.33011 3.71624
thorax 0.826277 -0.506456 6.14338
lowerneck -17.4266 -8.08915 -13.931
upperneck 17.3822 -8.38377 0.912911
head 8.97253 -4.95435 1.39254
rclavicle -4.77083e-014 -1.08139e-013
rhumerus 30.2139 15.2985 5.89818
rradius 97.4907
rwrist 51.052
rhand -53.9545 -19.3004
rfingers 7.12502
rthumb -26.3797 -47.4853
lclavicle -4.77083e-014 -1.08139e-013
lhumerus 62.8122 7.95763 9.06744
lradius 32.3284
lwrist -36.2241
lhand -63.6372 -320.566
lfingers 7.12502
lthumb -35.6071 -294.154
rfemur -45.8312 -20.5803 7.62504
rtibia 83.6141
rfoot -17.9501 20.5428
rtoes 8.74162
lfemur -38.4709 25.1566 -11.587
ltibia 100.167
lfoot 8.88534 -51.7918
ltoes -4.97684
189
root 4.57328 6.53573 -4.56732 201.719 21.8812 100.911
lowerback 24.121 -3.50832 -2.77251
upperback 12.5914 -2.33011 3.71624
thorax 0.826277 -0.506456 6.14338
lowerneck -17.4266 -8.08915 -13.931
upperneck 17.3822 -8.38377 0.912911
head 8.97253 -4.95435 1.39254
rclavicle -4.77083e-014 -1.08139e-013
rhumerus 30.2139 15.2985 5.89818
rradius 97.4907
rwrist 51.052
rhand -53.9545 -19.3004
rfingers 7.12502
rthumb -26.3797 -47.4853
lclavicle -4.77083e-014 -1.08139e-013
lhumerus 62.8122 7.95763 9.06744
lradius 32.3284
lwrist -36.2241
lhand -63.6372 -320.566
lfingers 7.12502
lthumb -35.6071 -294.154
rfemur -45.8312 -20.5803 7.62504
rtibia 83.6141
rfoot -17.9501 20.5428
rtoes 8.74162
lfemur -38.4709 25.1566 -11.587
ltibia 100.167
lfoot 8.88534 -51.7918
ltoes -4.97684
190
root 4.57328 6.53573 -4.56732 201.719 21.8812 100.911
lowerback 24.121 -3.50832 -2.77251
upperback 12.5914 -2.33011 3.71624
thorax 0.826277 -0.506456 6.14338
lowerneck -17.4266 -8.08915 -13.931
upperneck 17.3822 -8.38377 0.912911
head 8.97253 -4.95435 1.39254
rclavicle -4.77083e-014 -1.08139e-013
rhumerus 30.2139 15.2985 5.89818
rradius 97.4907
rwrist 51.052
rhand -53.9545 -19.3004
rfingers 7.12502
rthumb -26.3797 -47.4853
lclavicle -4.77083e-014 -1.08139e-013
lhumerus 62.8122 7.95763 9.06744
lradius 32.3284
lwrist -36.2241
lhand -63.6372 -320.566
lfingers 7.12502
lthumb -35.6071 -294.154
rfemur -45.8312 -20.5803 7.62504
rtibia 83.6141
rfoot -17.9501 20.5428
rtoes 8.74162
lfemur -38.4709 25.1566 -11.587
ltibia 100.167
lfoot 8.88534 -51.7918
ltoes -4.97684
191
root 4.57328 6.53573 -4.56732 201.719 21.8812 100.911
lowerback 24.121 -3.50832 -2.77251
upperback 12.5914 -2.33011 3.71624
thorax 0.826277 -0.506456 6.14338
lowerneck -17.4266 -8.08915 -13.931
upperneck 17.3822 -8.38377 0.912911
head 8.97253 -4.95435 1.39254
rclavicle -4.77083e-014 -1.08139e-013
rhumerus 30.2139 15.2985 5.89818
rradius 97.4907
rwrist 51.052
rhand -53.9545 -19.3004
rfingers 7.12502
rthumb -26.3797 -47.4853
lclavicle -4.77083e-014 -1.08139e-013
lhumerus 62.8122 7.95763 9.06744
lradius 32.3284
lwrist -36.2241
lhand -63.6372 -320.566
lfingers 7.12502
lthumb -35.6071 -294.154
rfemur -45.8312 -20.5803 7.62504
rtibia 83.6141
rfoot -17.9501 20.5428
rtoes 8.74162
lfemur -38.4709 25.1566 -11.587
ltibia 100.167
lfoot 8.88534 -51.7918
ltoes -4.97684
192
root 4.57328 6.53573 -4.56732 201.719 21.8812 100.911
lowerback 24.121 -3.50832 -2.77251
upperback 12.5914 -2.33011 3.71624
thorax 0.826277 -0.506456 6.14338
lowerneck -17.4266 -8.08915 -13.931
upperneck 17.3822 -8.38377 0.912911
head 8.97253 -4.95435 1.39254
rclavicle -4.77083e-014 -1.08139e-013
rhumerus 30.2139 15.2985 5.89818
rradius 97.4907
rwrist 51.052
rhand -53.9545 -19.3004
rfingers 7.12502
rthumb -26.3797 -47.4853
lclavicle -4.77083e-014 -1.08139e-013
lhumerus 62.8122 7.95763 9.06744
lradius 32.3284
lwrist -36.2241
lhand -63.6372 -320.566
lfingers 7.12502
lthumb -35.6071 -294.154
rfemur -45.8312 -20.5803 7.62504
rtibia 83.6141
rfoot -17.9501 20.5428
rtoes 8.74162
lfemur -38.4709 25.1566 -11.587
ltibia 100.167
lfoot 8.88534 -51.7918
ltoes -4.97684
193
root 6.05575 2.03467 0.907017 222.349 -49.618 45.4609
lowerback 15.8236 -1.34181 1.33212
upperback 8.28461 -2.06192 3.81295
thorax 0.0380942 -1.30632 3.5692
lowerneck -8.14472 -9.21027 -10.9243
upperneck 31.7396 -19.9494 15.9875
head 15.3835 -8.89458 4.98365
rclavicle -4.77083e-014 -1.08139e-013
rhumerus 30.2139 15.2985 5.89818
rradius 97.4907
rwrist 51.052
rhand -53.9545 -19.3004
rfingers 7.12502
rthumb -26.3797 -47.4853
lclavicle 2.22639e-014 1.90833e-014
lhumerus 43.0654 -13.4546 19.8179
lradius 58.3352
lwrist -26.3246
lhand -58.2295 -342.299
lfingers 7.12502
lthumb -30.4648 -314.797
rfemur -27.3831 -25.1092 -10.575
rtibia 70.0904
rfoot -17.7106 -7.33826
rtoes -5.28311
lfemur -22.5183 7.79779 -12.1127
ltibia 101.117
lfoot 17.2497 -54.3268
ltoes -11.8946
